<svg id="Layer_1" data-name="Layer 1" xmlns="http://www.w3.org/2000/svg" viewBox="0 0 824.49 345.25"><defs><style>.cls-1{fill:#156495;}.cls-2{fill:#fba72f;}.cls-3{fill:#287ea0;}</style></defs><title>bcarelogo</title><path class="cls-1" d="M203.45,276.44a214.31,214.31,0,0,1-42.27,13.87A185.21,185.21,0,0,0,194.61,271a280,280,0,0,1-47.48-38.41C109.35,194.2,93.88,134.12,87.55,89.36c-15.81,5-27.09,9.69-27.09,9.69A233.72,233.72,0,0,1,86.68,82.88a429.39,429.39,0,0,1-3.46-48.72A155,155,0,1,0,246.5,297.74,300.69,300.69,0,0,1,203.45,276.44Z" transform="translate(-8.7 -11.63)"/><path class="cls-1" d="M163.74,11.63a154.73,154.73,0,0,0-48.89,7.91,405.55,405.55,0,0,0-2.59,51.54c27.05-10.45,60-16.38,86.68-.6,42.46,25.11-10.6,85.64-10.6,85.64s53-9,72.42,21.45c15.61,24.54,3.3,68.9-52,96.35a229.22,229.22,0,0,0,38.75,23.16,155,155,0,0,0-83.8-285.45Z" transform="translate(-8.7 -11.63)"/><path class="cls-1" d="M180.85,89.11c-12.32-14.71-41.6-12.56-68.21-6.56,4.79,95.54,47.79,152.22,87.19,184.41,27.91-22.1,45.6-50.95,30.59-75.42-13.08-21.31-53.26-24.58-86.19-12C175.7,155.22,203.79,116.49,180.85,89.11Z" transform="translate(-8.7 -11.63)"/><path class="cls-2" d="M406.43,356.87,388.61,326c7.11-3,177.06-72.64,444.58-45.12l-5,34.15C572.71,288.72,408.06,356.19,406.43,356.87Z" transform="translate(-8.7 -11.63)"/><path class="cls-1" d="M496.37,194.73,494,228.85c-7.76,3.11-40.08,15.26-65.41,15.26-69.29,0-97-47.06-97-90.75C331.67,98.29,374.85,59,435.86,59c19.91,0,40.08,4.14,50.16,6.47h5.69v41.36l-10.34,1.29c-7.5-29.21-23-38.26-53-38.26-42.14,0-65.41,36.71-65.41,78.08C363,199.38,390.1,233,431,233c29.73,0,42.66-14.48,54.55-42.66Z" transform="translate(-8.7 -11.63)"/><path class="cls-1" d="M598.46,242.43c-11.9,0-18.88-8-21.72-15.77-9,7-21.2,15.77-30.77,15.77-20.42,0-37.49-13.7-37.49-31.28,0-12.16,11.12-25.86,26.38-30.77L576,167.71v-8.27c0-18.62-4.13-31.81-18.09-31.81-17.84,0-32.58,26.64-32.58,26.64l-12.66-18.36s18.61-19.39,51.44-19.39c25.6,0,36.46,17.58,36.46,40.59v50.94c0,11.89,3.87,17.06,7.76,17.06,2.58,0,3.87-.51,8.27-3.36l3.1,8ZM576,216.58V178.05l-22.23,7.24c-9.31,3.1-17.58,10.09-17.58,19.65,0,14,12.15,20.43,19.65,20.43S576,216.58,576,216.58Z" transform="translate(-8.7 -11.63)"/><path class="cls-1" d="M673.42,134.36c8.79-10.09,19.91-18.1,31.54-18.1,10.35,0,19.66,9.31,19.66,9.31l-9.31,17.83s-13.19-8.26-19.66-8.26c-6.2,0-15,4.65-22.23,17.06v57.91c0,17.58,4.4,19.13,31,20.94v8H627.92v-7.76c16.8-1.81,20.42-3.36,20.42-21.2V149.35c0-17.32-1.55-18.87-18.87-19.91V122l43.95-5.69Z" transform="translate(-8.7 -11.63)"/><path class="cls-1" d="M832.94,215.54c-17.85,22.49-40.6,26.89-49.39,26.89-34.39,0-56.1-27.15-56.1-58.17,0-38.52,30.25-67.74,61-67.74,24,0,44.72,20.42,44.72,45,0,5.68-.51,11.11-8,11.89H752.53c.26,36.19,21.72,49.9,40.07,49.9,10.35,0,24-4.91,34.64-15ZM753.56,162H801.4c4.64-.51,4.64-1.8,4.64-6.2,0-15.78-8.27-28.44-24-28.44C770.11,127.38,756.66,139.27,753.56,162Z" transform="translate(-8.7 -11.63)"/><path class="cls-3" d="M163.73,52.27c-2.35,0-3.62,4.1-4,8.57.6,0,1.21,0,1.81,0,.37-4.42,1.59-6.72,2.16-6.72s1.83,2.34,2.18,6.86l1.82.11C167.4,56.5,166.14,52.29,163.73,52.27Z" transform="translate(-8.7 -11.63)"/><path class="cls-3" d="M177.14,59.53a9.84,9.84,0,0,0-4.85,2c.86.11,1.71.28,2.56.42a6,6,0,0,1,2.29-.73.84.84,0,0,1,.59.16,1.33,1.33,0,0,1,.06,1.06c.54.11,1.07.27,1.61.39a2.76,2.76,0,0,0-.47-2.61A2.38,2.38,0,0,0,177.14,59.53Z" transform="translate(-8.7 -11.63)"/><path class="cls-3" d="M148.54,60.21a2.44,2.44,0,0,0-.56,1.47l1.75-.23s0-.07,0-.09a.84.84,0,0,1,.59-.16,4,4,0,0,1,.66.13c1.16-.12,2.32-.21,3.49-.28a8.91,8.91,0,0,0-4.15-1.52A2.35,2.35,0,0,0,148.54,60.21Z" transform="translate(-8.7 -11.63)"/><path class="cls-3" d="M73.09,90.69a67.22,67.22,0,0,0,.51-14.16,70,70,0,0,0,12.3-.25c-.16-1.46-.32-2.91-.46-4.32a71.33,71.33,0,0,1-14,0l-2.71-.3.3,2.71c0,.12,1.31,12.2-1.25,19.65C69.35,93,71.12,91.9,73.09,90.69Z" transform="translate(-8.7 -11.63)"/><path class="cls-3" d="M248.61,244.2a59.15,59.15,0,0,0-.53,6.82,57.45,57.45,0,0,0-6.48.48c-.78.74-1.57,1.48-2.4,2.22a58.38,58.38,0,0,1,9.77-.9l.92,0v-.93a54.74,54.74,0,0,1,1.05-10.51C250.18,242.34,249.41,243.27,248.61,244.2Z" transform="translate(-8.7 -11.63)"/><path class="cls-3" d="M177,54.56c-6.05-2.36-12.59-9-12.65-9.07l-.65-.66-.65.66c-.06.07-6.58,6.71-12.65,9.07a24.4,24.4,0,0,0-10.05,8.32l2.63-.47a22.14,22.14,0,0,1,8.08-6.17c5.35-2.08,10.8-7.06,12.64-8.85,1.85,1.79,7.31,6.77,12.65,8.85a22.8,22.8,0,0,1,9.79,8.48c.85.29,1.71.54,2.56.86A24.32,24.32,0,0,0,177,54.56Z" transform="translate(-8.7 -11.63)"/><path class="cls-3" d="M225.81,288.56c-.48.24-.93.53-1.42.77a10.6,10.6,0,0,0,.61-1.17c-1.28-.64-2.56-1.27-3.88-2-.33.77-.71,1.3-1,1.33-1.28.11-4.08-2.45-6-5-1.63-.89-3.28-1.79-4.95-2.74l.74,4c.59,3.19.47,7.37-.57,8.2-.27.22-1,.11-1.9-.28-1.3-.57-2.64-1.13-4-1.69-5.52-2.28-10.75-4.48-13.61-8.11-1.41.52-2.81,1-4.26,1.54,3.41,5.26,9.88,8,16.2,10.61,1.31.54,2.62,1.08,3.89,1.64a9,9,0,0,0,1.85.6,136.74,136.74,0,0,1-87.63,0,9.25,9.25,0,0,0,1.86-.6c1.27-.56,2.58-1.1,3.89-1.65,6.64-2.75,13.48-5.58,16.72-11.39a22.52,22.52,0,0,0,4.67,3.11c7.12,3.37,14.9,13,15,13.12l1.7,2.12,1.7-2.12c.08-.1,7.86-9.75,15-13.13a18.37,18.37,0,0,0,2.33-1.34c-4.2,1.37-8.63,2.62-13.19,3.81a78.87,78.87,0,0,0-5.81,5.92c-2.85-3.23-8.86-9.51-14.82-12.33-4.61-2.18-11-9.22-13.13-16.21a14.07,14.07,0,0,1-.34-8c1,.29,1.94.55,2.91.82a9.42,9.42,0,0,0-.51,7.1c1.74,5.85,7.89,11.45,12.59,13.28,6.06,2.35,12.59,9,12.65,9.07l.65.66.65-.66c.06-.07,6.57-6.71,12.65-9.07A24.17,24.17,0,0,0,189,267.21l-1.52-1.06a22.37,22.37,0,0,1-11.06,11c-5.35,2.07-10.8,7.06-12.64,8.85-1.85-1.79-7.3-6.77-12.65-8.85-4.32-1.69-10-6.95-11.5-12.12a7.45,7.45,0,0,1,.54-6.09,93.36,93.36,0,0,0,15.51,2.6,13.12,13.12,0,0,0-2.95,2.12c-3.44,3.29-6,7.61-4.15,9.51a2.37,2.37,0,0,0,1.8.69c2,0,5.11-1.73,7.9-4.4a12.73,12.73,0,0,0,1.5-1.73c-.05.75-.08,1.5-.08,2.25,0,5.35,1.27,11.12,4.07,11.13h0c2.8,0,4.08-5.77,4.08-11.13,0-.75,0-1.51-.08-2.26a13.44,13.44,0,0,0,1.5,1.74c2.79,2.67,5.89,4.4,7.9,4.4a2.38,2.38,0,0,0,1.79-.68c1.82-1.91-.7-6.23-4.14-9.52a12.76,12.76,0,0,0-2.95-2.11c2.61-.22,5.18-.55,7.73-1-1.73-1.28-3.46-2.58-5.19-3.92a91.14,91.14,0,0,1-10.64.65v0A90.54,90.54,0,0,1,91.43,112.16c-.39-2-.79-4-1.14-5.89a95.55,95.55,0,0,0-8.42,11.89,7.46,7.46,0,0,1-4.73-3.93c-2.58-4.73-2.3-12.46-.43-16.71a26.89,26.89,0,0,0,1.57-5.11l-2,.69a24,24,0,0,1-1.23,3.7c-2,4.62-2.42,12.93.5,18.3a9.4,9.4,0,0,0,5.4,4.67c-.5.87-1,1.76-1.46,2.65A14.1,14.1,0,0,1,74,116.49c-3.43-6.47-3.9-15.95-2.18-20.76.13-.37.23-.78.35-1.17q-2.82,1-5,1.86a26.6,26.6,0,0,0-.52,3.34c-6.39-1.82-13.22,1-19.85,3.75-1.32.55-2.64,1.09-4,1.6a9.49,9.49,0,0,0-1.75.9,137.44,137.44,0,0,1,43-50.56c-.12-1.87-.23-3.66-.32-5.35A141.4,141.4,0,0,0,231,291.05Q228.49,289.87,225.81,288.56ZM168,261.77a13.27,13.27,0,0,1,5.68,3.05c3.7,3.54,4.64,6.59,4.09,7.16a.82.82,0,0,1-.58.17c-1.27,0-3.92-1.23-6.74-3.94a13.92,13.92,0,0,1-3.56-6.41C167.21,261.78,167.58,261.78,168,261.77Zm-5.19.08,1,0,1,0a20.83,20.83,0,0,1,1.3,8.09c0,6.13-1.59,9.31-2.27,9.32s-2.27-3.19-2.27-9.32A21.08,21.08,0,0,1,162.76,261.85Zm-2.11-.05a14,14,0,0,1-3.56,6.41c-2.83,2.7-5.48,3.94-6.75,3.94a.84.84,0,0,1-.59-.17c-.54-.58.4-3.62,4.09-7.16a13.38,13.38,0,0,1,5.7-3.05C159.91,261.78,160.28,261.78,160.65,261.8Zm-37.27-8.93c2.59,1.21,5.24,2.33,7.94,3.31a16.91,16.91,0,0,0-.49,7.06,16.11,16.11,0,0,1-4,2.11l-1.4.59a17.69,17.69,0,0,0-3.7,2.25,17.67,17.67,0,0,0-1-4.2c-.19-.47-.38-.94-.58-1.41a15.89,15.89,0,0,1-1.36-4.35A17.06,17.06,0,0,0,123.38,252.87Zm-24-16.11a13.52,13.52,0,0,1,1.93,6.31,18.06,18.06,0,0,1-.75,5.92c-.47,1.4-1.06,2-1.42,2v0c-.79,0-2.39-2.77-2.51-7.85a14.16,14.16,0,0,1,2-7.1C98.92,236.31,99.15,236.54,99.4,236.76Zm-2.27-2.16a20.83,20.83,0,0,1-4.8,6.7c-3.32,3.33-6.47,5.06-7.85,5.06a.61.61,0,0,1-.35-.07c-.48-.49.63-3.87,5-8.21a20.83,20.83,0,0,1,6.7-4.8Zm-2.81-2.87a14.09,14.09,0,0,1-6.86,2h-.23c-4-.08-6.7-1.1-7.58-2a.86.86,0,0,1-.27-.5c0-.76,2.59-2.17,7.45-2.17h.51A13.47,13.47,0,0,1,93.63,231C93.86,231.25,94.1,231.48,94.32,231.73ZM91,228a13.53,13.53,0,0,0-3.65-.61h-.54c-4.36,0-9.06,1.2-9.12,3.81a2.35,2.35,0,0,0,.74,1.7c1.39,1.45,4.82,2.44,8.74,2.52h.27a13.36,13.36,0,0,0,2-.16c-.55.47-1.11,1-1.66,1.53-3.78,3.79-7,8.77-5,10.77a2.22,2.22,0,0,0,1.63.6c2.15,0,5.73-2.19,9.12-5.59.55-.54,1.05-1.1,1.53-1.65a13.21,13.21,0,0,0-.16,2.29c.11,4.71,1.58,9.48,4.18,9.48h0c.87,0,2.09-.59,3-3.18A19.23,19.23,0,0,0,103,243a13.28,13.28,0,0,0-.62-3.66,95.53,95.53,0,0,0,12.84,9.16,7.45,7.45,0,0,1-3.94,4.73c-4.73,2.57-12.44,2.3-16.69.44-5.25-2.32-12.63-2.65-15.2-2.69,0-2.57-.37-10-2.68-15.2-1.87-4.25-2.15-12,.42-16.7a7.47,7.47,0,0,1,4.74-3.93A96,96,0,0,0,91,228ZM80.94,213.57a9.39,9.39,0,0,0-5.39,4.69c-2.92,5.36-2.53,13.67-.5,18.29,2.62,5.94,2.54,15.26,2.54,15.35v.93h.93c.08,0,9.4-.08,15.36,2.54a22.68,22.68,0,0,0,8.74,1.61,20.48,20.48,0,0,0,9.54-2.11,9.38,9.38,0,0,0,4.68-5.4c.87.5,1.75,1,2.65,1.46a14,14,0,0,1-5.93,5.46c-6.46,3.44-16,3.91-20.76,2.19-6.2-2.22-14.89-2-19.19-1.76.27-4.31.45-13-1.76-19.19-1.72-4.82-1.25-14.31,2.19-20.77a13.93,13.93,0,0,1,5.46-5.92C80,211.82,80.45,212.7,80.94,213.57Zm-34.33-.7c-3.18.6-7.36.48-8.19-.57-.22-.28-.12-1,.28-1.9.58-1.31,1.13-2.64,1.69-4,2.75-6.67,5.36-13,10.54-15.11a34.14,34.14,0,0,0,12.62,7.49c.6.18,1.19.33,1.78.46A22.85,22.85,0,0,0,63.51,203l-.57,1.34a16.08,16.08,0,0,1-3,4.49l-1.46,1.44h2.06a16.25,16.25,0,0,1,5.31,1c.45.17.9.36,1.35.55a23.45,23.45,0,0,0,3.93,1.35c-.32.51-.63,1-.92,1.58A34.33,34.33,0,0,0,66.54,229c-5.17,2.14-11.47-.46-18.12-3.22-1.34-.56-2.68-1.12-4-1.63-.93-.36-1.51-.79-1.55-1.15-.16-1.35,2.71-4.36,5.39-6.21L56.63,211Zm22-45.24A21,21,0,0,1,60.47,169c-4.7,0-8.14-1-9.12-2a.55.55,0,0,1-.19-.3c0-.66,3.26-2.28,9.31-2.28a20.94,20.94,0,0,1,8.09,1.32c0,.32,0,.63,0,.95S68.55,167.31,68.56,167.63Zm0,2.14c0,.38,0,.76,0,1.13a13.43,13.43,0,0,1-3,5.68c-2.78,2.9-5.4,4.23-6.65,4.23a.75.75,0,0,1-.51-.15.83.83,0,0,1-.17-.54c0-1.26,1.19-3.93,3.94-6.79A14,14,0,0,1,68.61,169.77Zm0-6.19A13.92,13.92,0,0,1,62.2,160c-2.74-2.86-4-5.52-3.93-6.78a.76.76,0,0,1,.17-.55.72.72,0,0,1,.5-.14c1.25,0,3.87,1.32,6.65,4.23a13.46,13.46,0,0,1,3,5.67C68.62,162.82,68.62,163.21,68.61,163.58Zm-1.81-8c-2.77-2.88-5.85-4.75-7.86-4.75a2.2,2.2,0,0,0-2.34,2.32c-.05,2,1.68,5.14,4.4,8a12.73,12.73,0,0,0,1.73,1.5c-.75,0-1.51-.08-2.26-.08-5.36,0-11.12,1.28-11.12,4.08a2.25,2.25,0,0,0,.72,1.59c1.52,1.51,5.6,2.5,10.4,2.5.78,0,1.53,0,2.26-.08A13.35,13.35,0,0,0,61,172.17c-2.71,2.84-4.44,6-4.4,8a2.37,2.37,0,0,0,.68,1.72,2.33,2.33,0,0,0,1.67.61c2,0,5.09-1.87,7.86-4.75a13.18,13.18,0,0,0,2.1-2.94,94.35,94.35,0,0,0,2.6,15.49,7.46,7.46,0,0,1-6.08.55C60.25,189.3,55,183.64,53.3,179.32c-2.07-5.35-7.06-10.8-8.84-12.64,1.78-1.85,6.77-7.31,8.85-12.65,1.67-4.32,6.93-10,12.1-11.51a7.52,7.52,0,0,1,6.09.54,94.29,94.29,0,0,0-2.6,15.5A13.13,13.13,0,0,0,66.8,155.63Zm-1.91-14.84c-5.86,1.74-11.45,7.89-13.27,12.59-2.35,6.05-9,12.58-9.06,12.65l-.66.65.66.64c.07.07,6.7,6.59,9.06,12.65,1.83,4.71,7.43,10.86,13.29,12.59A10.85,10.85,0,0,0,68,193a8.77,8.77,0,0,0,4-1c.27,1,.53,1.94.83,2.89a14,14,0,0,1-8-.33c-7-2.14-14-8.52-16.23-13.15-2.82-5.95-9.09-11.95-12.33-14.81,3.24-2.86,9.51-8.86,12.33-14.81,2.19-4.61,9.23-11,16.23-13.14a14,14,0,0,1,8-.33c-.3,1-.56,1.92-.83,2.89A9.4,9.4,0,0,0,64.89,140.79Zm9.33,58.28q1.48,4.08,3.32,8a17,17,0,0,0-5.36,4.66,16.67,16.67,0,0,1-4.37-1.37c-.46-.2-.93-.39-1.39-.57a17.69,17.69,0,0,0-4.19-1,17.7,17.7,0,0,0,2.24-3.7c.2-.45.39-.9.58-1.37a16,16,0,0,1,2.13-4.07,20.11,20.11,0,0,0,2.42.17A16,16,0,0,0,74.22,199.07Zm3.32-72.75q-1.83,3.87-3.32,7.94a17,17,0,0,0-7-.5,16.09,16.09,0,0,1-2.11-4c-.2-.47-.39-.94-.59-1.4a17.33,17.33,0,0,0-2.24-3.69,17.69,17.69,0,0,0,4.19-1l1.39-.56a15.61,15.61,0,0,1,4.37-1.37A17.18,17.18,0,0,0,77.54,126.32Zm-30.92-5.85,10,1.82-8.34-5.76c-2.68-1.85-5.55-4.85-5.39-6.21,0-.36.62-.78,1.54-1.14,1.34-.52,2.69-1.08,4-1.64,6.64-2.76,12.92-5.36,18.09-3.21a34.3,34.3,0,0,0,3.63,14.2c.29.56.61,1.09.93,1.6a23.5,23.5,0,0,0-3.93,1.36l-1.35.55a15.6,15.6,0,0,1-5.32,1l-2.06,0,1.47,1.45a16.26,16.26,0,0,1,3,4.49c.2.44.39.9.58,1.36a21.84,21.84,0,0,0,1.81,3.73c-.59.13-1.18.28-1.78.46A34.14,34.14,0,0,0,50.93,142c-5.18-2.15-7.79-8.44-10.54-15.1-.55-1.34-1.11-2.68-1.68-4-.4-.91-.51-1.62-.29-1.9C39.27,120,43.43,119.89,46.62,120.47Zm-8-9.15a10,10,0,0,0,2.36,4.5,10.05,10.05,0,0,0-4.86,1.51Q37.28,114.29,38.6,111.32Zm-4.47,99.22a136.68,136.68,0,0,1,0-87.73,8.79,8.79,0,0,0,.58,1.9c.56,1.27,1.11,2.58,1.65,3.9,2.75,6.64,5.59,13.48,11.4,16.72a22.26,22.26,0,0,0-3.1,4.66c-3.39,7.12-13,14.9-13.13,15l-2.13,1.71,2.13,1.7c.09.08,9.75,7.86,13.12,15A22.52,22.52,0,0,0,47.76,188c-5.81,3.24-8.66,10.08-11.4,16.73-.54,1.31-1.09,2.61-1.65,3.89A8.63,8.63,0,0,0,34.13,210.54ZM38.59,222q-1.31-3-2.48-6A10,10,0,0,0,41,217.53,10.15,10.15,0,0,0,38.59,222Zm2.49,5.32a8.4,8.4,0,0,0,1.75.9c1.3.51,2.6,1.05,3.92,1.59,5.18,2.16,10.49,4.37,15.62,4.37a15.07,15.07,0,0,0,4.26-.6,22.83,22.83,0,0,0,1.11,5.5c2.64,7.41,1.32,19.74,1.31,19.87l-.3,2.7,2.7-.3c.12,0,12.44-1.34,19.87,1.32a23,23,0,0,0,5.5,1.09c-1.82,6.39,1,13.23,3.76,19.87.54,1.31,1.09,2.63,1.59,3.95a9.71,9.71,0,0,0,.9,1.74A137.35,137.35,0,0,1,41.08,227.33Zm67.32,64.49a10,10,0,0,0,4.48-2.36,10,10,0,0,0,1.51,4.84Q111.36,293.13,108.4,291.82Zm9.71.17c-1.07-.85-1.16-5-.58-8.2l1.82-10-5.76,8.34c-1.85,2.68-4.84,5.58-6.21,5.39-.35,0-.78-.62-1.14-1.55-.52-1.33-1.08-2.68-1.64-4-2.75-6.65-5.35-12.93-3.21-18.11a34.18,34.18,0,0,0,14.21-3.62c.56-.29,1.08-.61,1.59-.93a22.73,22.73,0,0,0,1.36,3.91c.19.46.38.92.56,1.38a16,16,0,0,1,1,5.31V272l1.44-1.47a16.93,16.93,0,0,1,4.5-3l1.37-.58a22.11,22.11,0,0,0,3.72-1.81c.13.6.28,1.2.47,1.8a34.13,34.13,0,0,0,7.47,12.61C137,284.66,130.66,287.27,124,290c-1.34.55-2.68,1.11-4,1.69C119.11,292.11,118.4,292.21,118.11,292Zm95,2.31a10.11,10.11,0,0,0,1.5-4.85,10,10,0,0,0,4.49,2.37Q216.13,293.13,213.09,294.3Z" transform="translate(-8.7 -11.63)"/><path class="cls-3" d="M190.64,268.32a32.77,32.77,0,0,1-7.74,10.42c3.78-2.33,7.5-4.76,11.06-7.34.11-.22.24-.43.35-.65C193.09,270,191.87,269.14,190.64,268.32Z" transform="translate(-8.7 -11.63)"/><path class="cls-3" d="M267,210.27H269l-1.46-1.44a12.94,12.94,0,0,1-1.11-1.29c-.13.92-.29,1.84-.47,2.77C266.6,210.27,267,210.27,267,210.27Z" transform="translate(-8.7 -11.63)"/><path class="cls-3" d="M86.8,104.27c-4.84,0-7.4-1.41-7.42-2.17s2.74-2.4,7.85-2.52h.23a11.67,11.67,0,0,1,1.7.16c-.09-.56-.2-1.15-.29-1.71a10.72,10.72,0,0,0-1.41-.12h-.27c-4.75.11-9.53,1.59-9.47,4.22S82.46,106,86.8,106h.57a12.43,12.43,0,0,0,2.79-.41c-.1-.55-.19-1.1-.28-1.65a11,11,0,0,1-2.54.39Z" transform="translate(-8.7 -11.63)"/><path class="cls-3" d="M113.05,39.6c.45-.18.89-.39,1.35-.56a10,10,0,0,0-1.52,4.86l-.06,0c-.11,2-.18,4-.25,6,.36.45.71.91,1,1.36l5.77,8.34-1.83-10c-.58-3.2-.49-7.35.58-8.2.29-.22,1-.12,1.9.28,1.32.59,2.67,1.14,4,1.7,6.65,2.75,12.92,5.36,15.06,10.52a35.45,35.45,0,0,0-6.78,10.8q2.66-.66,5.34-1.23c2.89-5.39,7.62-10.17,11.27-11.9,6-2.82,12-9.1,14.81-12.33,2.86,3.24,8.87,9.51,14.82,12.33,4.38,2.07,10.29,8.51,12.72,15.14a66.31,66.31,0,0,1,6.12,3A20.67,20.67,0,0,1,200.72,68l1.37-.58a17.59,17.59,0,0,0,3.69-2.24,17.69,17.69,0,0,0,1,4.19c.18.46.38.94.57,1.4a16.35,16.35,0,0,1,1.37,4.36A19.08,19.08,0,0,0,207,76.79a30.11,30.11,0,0,1,2.78,3.31A15.75,15.75,0,0,1,213.91,77c6.46-3.45,16-3.91,20.77-2.19,6.21,2.21,14.88,2,19.19,1.75-.27,4.31-.45,13,1.76,19.2,1.72,4.82,1.25,14.31-2.19,20.77a14.08,14.08,0,0,1-5.46,5.91c-.47-.89-.95-1.77-1.45-2.64a9.37,9.37,0,0,0,5.39-4.68c2.92-5.37,2.53-13.68.5-18.29-2.62-6-2.55-15.27-2.54-15.36v-.93l-.93,0c-.08,0-9.4.08-15.35-2.54-4.62-2-12.93-2.43-18.3.5a9.79,9.79,0,0,0-4,3.94c.39.67.79,1.33,1.12,2a7.49,7.49,0,0,1,3.78-4.35c4.74-2.58,12.47-2.3,16.71-.44,5.25,2.31,12.63,2.64,15.2,2.69,0,2.56.37,10,2.68,15.19,1.87,4.25,2.15,12-.42,16.71a7.48,7.48,0,0,1-4.74,3.93,93.86,93.86,0,0,0-9.15-12.83,13.52,13.52,0,0,0,3.64.61h.52c4.37,0,9.09-1.2,9.14-3.82a2.33,2.33,0,0,0-.72-1.69c-1.38-1.45-4.82-2.44-8.75-2.54H240a13.34,13.34,0,0,0-2,.17c.55-.48,1.1-1,1.65-1.53,3.39-3.4,5.59-7,5.59-9.12A2.11,2.11,0,0,0,243,85.18c-2.15,0-5.73,2.19-9.12,5.59-.53.52-1.05,1.07-1.54,1.64a13,13,0,0,0,.17-2.28c-.1-4.71-1.57-9.48-4.23-9.48a2.39,2.39,0,0,0-1.66.8c-1.39,1.46-2.23,4.94-2.14,8.86a13.45,13.45,0,0,0,.61,3.64,96.88,96.88,0,0,0-12.42-8.88,30.05,30.05,0,0,1,2.13,6.81,90.56,90.56,0,0,1,39.54,74.79c0,1.05,0,2.09-.08,3.13a39.47,39.47,0,0,1,6.51,7.77l.29.49c2.66,2.67,5.56,4.41,7.48,4.41h0a2.28,2.28,0,0,0,1.66-.61,2.32,2.32,0,0,0,.68-1.71c.05-2-1.68-5.14-4.4-8a12.07,12.07,0,0,0-1.73-1.5c.75.06,1.51.08,2.26.08h0c4.78,0,8.85-1,10.36-2.5a2.1,2.1,0,0,0,0-3.16c-1.52-1.52-5.59-2.5-10.4-2.5-.76,0-1.52,0-2.27.08a12.8,12.8,0,0,0,1.74-1.5c2.72-2.83,4.44-6,4.4-8a2.21,2.21,0,0,0-2.35-2.32c-2,0-5.1,1.86-7.85,4.75a13.06,13.06,0,0,0-2.11,2.95,94.58,94.58,0,0,0-2.6-15.51,7.5,7.5,0,0,1,6.08-.54c5.17,1.53,10.44,7.18,12.12,11.51,2.08,5.35,7.06,10.8,8.85,12.64-1.79,1.85-6.77,7.3-8.85,12.64a22.77,22.77,0,0,1-8.52,9.81c.16.61.3,1.22.43,1.84a24.59,24.59,0,0,0,9.78-11c2.35-6.06,9-12.58,9.06-12.65l.66-.65-.66-.64c-.07-.07-6.71-6.59-9.07-12.65-1.83-4.71-7.43-10.86-13.28-12.59a9.43,9.43,0,0,0-7.1.49c-.26-1-.52-1.94-.82-2.89a14,14,0,0,1,8,.33c7,2.13,14.05,8.52,16.25,13.13,2.81,6,9.09,12,12.33,14.82-3.24,2.86-9.52,8.87-12.33,14.82-1.79,3.78-6.83,8.69-12.43,11.54a46.32,46.32,0,0,1,.46,4.62,36.37,36.37,0,0,0,9.63-6.33c5.17,2.14,7.77,8.42,10.52,15.07.56,1.35,1.11,2.69,1.7,4,.39.91.5,1.62.28,1.91-.85,1.06-5,1.16-8.2.58l-10-1.83,8.38,5.77c2.67,1.83,5.54,4.88,5.39,6.2-.05.36-.62.79-1.55,1.15-1.33.52-2.68,1.08-4,1.63-6.65,2.76-12.94,5.36-18.11,3.22,0-1-.15-2-.27-2.94a76.5,76.5,0,0,1-4.22,7.58,17.81,17.81,0,0,1-.81,4c-2.22,6.2-2,14.88-1.76,19.19-4.31-.27-13-.45-19.18,1.76a14.25,14.25,0,0,1-2,.54c-2.09,1.62-4.3,3.21-6.6,4.76,2.14,5.18-.46,11.48-3.23,18.13l-.48,1.21c1.26.8,2.52,1.6,3.75,2.35.25-.63.5-1.25.76-1.88,2.76-6.65,5.59-13.51,3.77-19.91a22.4,22.4,0,0,0,5.5-1.09c7.42-2.65,19.74-1.33,19.87-1.32l2.71.3-.3-2.71c0-.12-1.35-12.43,1.3-19.86a22.36,22.36,0,0,0,1.11-5.5,15.42,15.42,0,0,0,4.26.59c5.12,0,10.43-2.2,15.61-4.35,1.31-.55,2.63-1.09,3.92-1.59a9.12,9.12,0,0,0,1.77-.91A137.27,137.27,0,0,1,228.6,287q2.4,1.43,4.7,2.72A141.39,141.39,0,0,0,113.45,34.52C113.32,36.2,113.15,37.93,113.05,39.6Zm115,57a13.44,13.44,0,0,1-1.93-6.29c-.09-4,.8-6.76,1.68-7.68a.82.82,0,0,1,.49-.28c.8,0,2.41,2.77,2.52,7.85a14,14,0,0,1-2.05,7.09Zm2.27,2.17a20.75,20.75,0,0,1,4.81-6.7C238.46,88.72,241.6,87,243,87a.34.34,0,0,1,.43.43c0,1.38-1.73,4.52-5.06,7.84a20.67,20.67,0,0,1-6.7,4.8C231.22,99.61,230.79,99.18,230.34,98.74Zm2.81,2.88A14.12,14.12,0,0,1,240,99.57h.22c4,.09,6.71,1.1,7.58,2a.81.81,0,0,1,.26.51c0,.76-2.59,2.17-7.47,2.17h-.48a13.44,13.44,0,0,1-6.3-1.94C233.6,102.09,233.37,101.86,233.15,101.62ZM267,164.4c4.69,0,8.13,1,9.1,2a.53.53,0,0,1,.2.3.65.65,0,0,1-.2.31c-1,1-4.4,2-9.08,2H267a20.65,20.65,0,0,1-8.06-1.31c0-.32,0-.64,0-1s0-.65,0-1A20.88,20.88,0,0,1,267,164.4Zm-5.14-7.63c2.78-2.9,5.4-4.23,6.65-4.23a.8.8,0,0,1,.52.15.89.89,0,0,1,.16.54c0,1.26-1.2,3.92-3.94,6.79a13.89,13.89,0,0,1-6.41,3.55c0-.36,0-.73,0-1.1A13.55,13.55,0,0,1,261.88,156.77Zm-3,13a14,14,0,0,1,6.42,3.57c2.74,2.86,4,5.53,3.93,6.79a.57.57,0,0,1-.67.68h0c-1.24,0-3.86-1.32-6.65-4.23a13.66,13.66,0,0,1-3.05-5.7C258.85,170.5,258.85,170.13,258.86,169.76Zm-5.61-35.5q-1.49-4.06-3.32-7.95a17,17,0,0,0,5.35-4.64,16,16,0,0,1,4.34,1.35l1.43.58a17.24,17.24,0,0,0,4.19,1,17.7,17.7,0,0,0-2.24,3.7c-.2.46-.39.94-.59,1.41a16.11,16.11,0,0,1-2.11,4A16.85,16.85,0,0,0,253.25,134.26Zm23.3,7.77a34.27,34.27,0,0,0-12.64-7.48c-.59-.19-1.18-.33-1.76-.46a23.3,23.3,0,0,0,1.8-3.72c.2-.46.38-.92.58-1.37a16.41,16.41,0,0,1,3-4.5l1.47-1.45-2.07,0a16.25,16.25,0,0,1-5.3-1l-1.41-.56a22.7,22.7,0,0,0-3.89-1.34c.32-.51.63-1,.93-1.6a34.13,34.13,0,0,0,3.64-14.21c5.18-2.15,11.46.46,18.11,3.22,1.34.56,2.69,1.11,4,1.63.93.36,1.5.79,1.54,1.15.16,1.35-2.7,4.35-5.38,6.2l-8.32,5.76,10-1.82c3.19-.58,7.34-.49,8.19.58.23.28.11,1-.28,1.9-.58,1.31-1.14,2.65-1.69,4C284.33,133.6,281.72,139.88,276.55,142Zm12.32,80a10,10,0,0,0-2.36-4.5,10.05,10.05,0,0,0,4.86-1.51Q290.18,219.07,288.87,222Zm4.48-99.23a136.89,136.89,0,0,1,0,87.74,9,9,0,0,0-.6-1.91c-.56-1.28-1.1-2.59-1.65-3.9-2.74-6.64-5.58-13.47-11.38-16.71a22.74,22.74,0,0,0,3.11-4.66c3.37-7.12,13-14.91,13.12-15l2.13-1.7L295.94,165c-.09-.07-9.73-7.83-13.11-15a22.42,22.42,0,0,0-3.11-4.65c5.8-3.25,8.64-10.08,11.39-16.72.54-1.31,1.09-2.62,1.64-3.9A9,9,0,0,0,293.35,122.8Zm-4.48-11.49c.88,2,1.71,4,2.5,6a10.05,10.05,0,0,0-4.86-1.51A10,10,0,0,0,288.87,111.31ZM286.4,106a9.39,9.39,0,0,0-1.77-.9c-1.29-.51-2.61-1.05-3.92-1.6-6.63-2.75-13.47-5.57-19.87-3.76a22.38,22.38,0,0,0-1.1-5.5c-2.65-7.43-1.33-19.75-1.32-19.87l.3-2.71L256,72c-.12,0-12.44,1.33-19.86-1.31a22.39,22.39,0,0,0-5.49-1.1c1.81-6.4-1-13.23-3.77-19.87-.54-1.31-1.09-2.62-1.59-3.93a8.74,8.74,0,0,0-.91-1.76A137.32,137.32,0,0,1,286.4,106ZM219.12,41.54a10,10,0,0,0-4.53,2.36A9.89,9.89,0,0,0,213.07,39C215.11,39.82,217.12,40.66,219.12,41.54Zm-9.76-.18c1,.82,1.16,5,.58,8.2l-1.83,10,5.77-8.35c1.85-2.67,4.83-5.56,6.21-5.39.36.05.78.63,1.14,1.55.52,1.33,1.08,2.68,1.64,4,2.76,6.65,5.35,12.94,3.22,18.11a34.1,34.1,0,0,0-14.23,3.64c-.55.29-1.07.6-1.58.92a22.54,22.54,0,0,0-1.36-3.92c-.19-.46-.38-.91-.55-1.36a16.21,16.21,0,0,1-1-5.32V61.38l-1.44,1.47a16.08,16.08,0,0,1-4.49,3l-1.32.56a22.69,22.69,0,0,0-3.77,1.83c-.13-.59-.28-1.18-.46-1.78a34.37,34.37,0,0,0-7.48-12.63c2.15-5.17,8.43-7.78,15.09-10.52,1.35-.56,2.69-1.11,4-1.69C208.36,41.25,209.09,41.14,209.36,41.36ZM163.74,29.83a136.72,136.72,0,0,1,43.88,7.23,9.26,9.26,0,0,0-1.92.6c-1.27.56-2.59,1.1-3.9,1.64-6.64,2.75-13.47,5.59-16.72,11.39a22,22,0,0,0-4.66-3.1c-7.13-3.37-14.9-13-15-13.13l-1.71-2.13L162,34.46c-.08.1-7.84,9.75-15,13.13a22,22,0,0,0-4.66,3.1c-3.23-5.8-10.06-8.63-16.69-11.38-1.32-.54-2.64-1.09-3.92-1.65a9.08,9.08,0,0,0-1.92-.6A136.68,136.68,0,0,1,163.74,29.83Z" transform="translate(-8.7 -11.63)"/><path class="cls-3" d="M192,257.59a12.14,12.14,0,0,1,.4,3.05q3.51,3.14,7,6l.53.23c.5-.39,1-.81,1.45-1.21-.24-.09-.47-.2-.71-.3a16,16,0,0,1-4-2.11,17,17,0,0,0-.5-7.05q4.07-1.49,7.95-3.32a16.93,16.93,0,0,0,4.65,5.36,10.76,10.76,0,0,1-.32,1.37c1.43-1.33,2.82-2.66,4.17-4a13.19,13.19,0,0,1-4.6-4.66c.89-.47,1.77-1,2.64-1.45a9.12,9.12,0,0,0,3.48,4.61c.43-.45.82-.9,1.24-1.35a7.18,7.18,0,0,1-3.11-4.19,95.46,95.46,0,0,0,12.84-9.15,14.56,14.56,0,0,0-.45,2,67.54,67.54,0,0,0,8.82-16.91,90.66,90.66,0,0,1-47.63,30.08q2,1.89,3.93,3.7C190.52,258,191.27,257.82,192,257.59Z" transform="translate(-8.7 -11.63)"/><path class="cls-3" d="M123.73,80.33c-.11.06-.24.1-.36.16a.47.47,0,0,0-.06-.09c-1.54.28-3.07.57-4.61.87a12.27,12.27,0,0,1,.77,1.16c-.89.47-1.77,1-2.64,1.46a8.49,8.49,0,0,0-1-2l-1.9.41a6.7,6.7,0,0,1,1.28,2.54c-.8.48-1.55,1-2.34,1.53.11,1.73.2,3.47.33,5.17A90.36,90.36,0,0,1,145,78,152.06,152.06,0,0,0,123.73,80.33Z" transform="translate(-8.7 -11.63)"/><path class="cls-3" d="M88.77,97.43c-.16-1-.3-2-.45-3a23.75,23.75,0,0,1-3.24-4.28l-1.77.58a27.54,27.54,0,0,0,4.52,5.82C88.14,96.86,88.46,97.14,88.77,97.43Z" transform="translate(-8.7 -11.63)"/><path class="cls-3" d="M121.1,67.93a18.71,18.71,0,0,0,.59-2.76,19.88,19.88,0,0,0,2.71,1.71l2.36-.71-.7-.29a16.26,16.26,0,0,1-4.49-3l-1.45-1.47,0,2.06a16.35,16.35,0,0,1-1,5.14Z" transform="translate(-8.7 -11.63)"/><path class="cls-3" d="M79.39,82.33a58.91,58.91,0,0,0,7.16-.58c-.08-.6-.15-1.19-.22-1.79a57.74,57.74,0,0,1-7.83.57h-.93l0,.92a58.15,58.15,0,0,1-.44,6.81L79.1,87.1C79.31,85.06,79.37,83.33,79.39,82.33Z" transform="translate(-8.7 -11.63)"/><path class="cls-3" d="M110,174.5q-2-4.65-3.74-9.36A9.86,9.86,0,0,0,110,174.5Z" transform="translate(-8.7 -11.63)"/><path class="cls-3" d="M122,211.27c1.58,0,3.73-1.06,5.95-2.59-.64-1-1.23-2-1.85-3a16.66,16.66,0,0,1-3.31,1.89,18.13,18.13,0,0,1,2.16-3.72c-.65-1.07-1.35-2.12-2-3.2-2.19,2.84-3.88,5.72-3.87,7.71a2.76,2.76,0,0,0,2.9,2.9Zm0-3.5v0Z" transform="translate(-8.7 -11.63)"/><path class="cls-3" d="M170,253.19c-.92-.74-1.84-1.51-2.76-2.27-1.17.05-2.34.11-3.52.11-1.61,0-3.2-.06-4.78-.15a2.85,2.85,0,0,1,1-1,7.66,7.66,0,0,1,3.72-.88,8.51,8.51,0,0,1,1.38.13c-6.06-5.12-12.08-10.64-18-16.62a151,151,0,0,1-11-12.6,166.26,166.26,0,0,1-26.66,1c-.26-6.45-.73-28.15,3.95-38.47-.73-1.57-1.4-3.16-2.09-4.75a1.4,1.4,0,0,0-.1.16,22.72,22.72,0,0,0-2.51,5.28,1.1,1.1,0,0,0-.18,0c-3.58,1.05-8.61-5.35-10.77-8.08l-.49-.61c-1.72-2.16-5.53-6.23-7-7.78,1.47-1.57,5.25-5.63,7-7.77l.55-.69a49.63,49.63,0,0,1,4.24-4.82c-.21-.65-.4-1.3-.61-1.95a45.83,45.83,0,0,0-5,5.64l-.54.68c-2.07,2.57-7.42,8.23-7.47,8.29a.91.91,0,0,0-.21.88,1,1,0,0,0,.25.41c.45.47,5.47,5.77,7.45,8.24l.48.61c2.35,3,7,8.88,11.4,8.88.13,0,.26,0,.38,0-.3,1.06-.57,2.16-.82,3.29a6.2,6.2,0,0,0-3.45-.8c-.32,0-.64,0-1,0-3.45-2.28-7-7.08-8.86-9.58l-.66-.9c-2.17-2.89-7-8.41-8.76-10.44,1.8-2.05,6.57-7.52,8.73-10.39l.63-.86a59.59,59.59,0,0,1,6.36-7.56c-.25-.81-.52-1.62-.76-2.43A54.1,54.1,0,0,0,92.1,154l-.62.84c-2,2.67-6.46,7.8-8.38,10a8.52,8.52,0,0,0-1-2.83,4.23,4.23,0,0,0-2.46-2.11,84,84,0,0,1,5-22.59,11.92,11.92,0,0,0,1.55,1.59A29.85,29.85,0,0,0,94,143.49a33.53,33.53,0,0,0,5.5,1.76c-.27-.9-.52-1.8-.78-2.7a33.41,33.41,0,0,1-3.79-1.3,27.47,27.47,0,0,1-7.18-4.19c-1.65-1.42-2-2.38-1.88-2.62s.62-.56,2.31-.56a25,25,0,0,1,8.7,2.07c-.26-.95-.51-1.9-.75-2.86a25.38,25.38,0,0,0-8-1.63,9.77,9.77,0,0,0-1.13.06,84.22,84.22,0,0,1,6.1-11c-.24-1.1-.5-2.2-.73-3.3a86.71,86.71,0,0,0,71.28,136.19C165.85,253.45,168,253.34,170,253.19ZM79.38,166.67c0-1.6.06-3.19.15-4.77a2.81,2.81,0,0,1,1,1.06,7.63,7.63,0,0,1,.88,3.72A6.56,6.56,0,0,1,80,171.14a1.89,1.89,0,0,1-.42.31C79.44,169.87,79.38,168.27,79.38,166.67ZM84.67,196a83.66,83.66,0,0,1-5-22.61,3.56,3.56,0,0,0,1.6-1,7.35,7.35,0,0,0,1.84-4c1.92,2.2,6.39,7.35,8.39,10l.66.88a53.22,53.22,0,0,0,7.56,8.67A35.42,35.42,0,0,0,94,189.86a29.85,29.85,0,0,0-7.83,4.6A11.18,11.18,0,0,0,84.67,196Zm1.24,2.87c-.09-.24.23-1.19,1.88-2.62A27.47,27.47,0,0,1,95,192.1a28.24,28.24,0,0,1,7.58-2.07,8.2,8.2,0,0,0,3.51,1.1c-.65,1.28-3.5,3.94-8.93,6.19a25.15,25.15,0,0,1-8.92,2.15C86.52,199.47,86,199.06,85.91,198.91Zm13.64,22.4a84.35,84.35,0,0,1-12.46-19.48,9.59,9.59,0,0,0,1.12.06,27.8,27.8,0,0,0,9.85-2.33,28.87,28.87,0,0,0,8.21-4.93,170.19,170.19,0,0,0-.82,27.78C103.35,220.92,101.07,220.47,99.55,221.31Zm1.31,1.52c1.1-.25,3,.4,4.64,2.08a7.67,7.67,0,0,1,2,3.25,2.92,2.92,0,0,1,.07,1.39A88.76,88.76,0,0,1,100.86,222.83Zm27.73,20.49a84.68,84.68,0,0,1-19.5-12.46,4.22,4.22,0,0,0,.25-3.19A8.89,8.89,0,0,0,108,225c1.35.08,4.8.23,9.27.23a147.69,147.69,0,0,0,18.52-1.06,29,29,0,0,0-4.94,8.22,29.6,29.6,0,0,0-2.29,8.79A11,11,0,0,0,128.59,243.32Zm3,1.19h-.09c-.24-.1-.68-1-.52-3.19a26.93,26.93,0,0,1,2.11-8c2.09-5.06,4.68-8.16,6.19-8.88a8.32,8.32,0,0,0,1.08,3.48,28,28,0,0,1-2.06,7.56C135.88,241.28,132.8,244.51,131.59,244.51ZM157,250.73a84,84,0,0,1-22.6-5c2.33-1.86,4.62-5.63,6.17-9.38a34.5,34.5,0,0,0,1.82-5.66,52.67,52.67,0,0,0,8.7,7.59l.85.63c2.67,2,7.8,6.45,10,8.37a9,9,0,0,0-2.84,1A4.21,4.21,0,0,0,157,250.73Z" transform="translate(-8.7 -11.63)"/><path class="cls-3" d="M112.25,217.3l0,.81.81,0c.36,0,3.51.2,7.87.2a122.36,122.36,0,0,0,13.37-.69c-.43-.56-.83-1.14-1.25-1.7a144.29,144.29,0,0,1-19.07.41c-.17-3.69-.66-19,2.09-28.54-.39-.78-.78-1.56-1.15-2.34C111,196.32,112.19,216.35,112.25,217.3Z" transform="translate(-8.7 -11.63)"/><path class="cls-3" d="M197.94,143.43c-1.17,1.72-2.3,3.31-3.35,4.74a35.15,35.15,0,0,1,3.16,7c1.71-.11,3.59-.2,5.63-.23A41.07,41.07,0,0,0,197.94,143.43Z" transform="translate(-8.7 -11.63)"/><path class="cls-3" d="M215.34,100.08c1,.79,2,1.57,3,2.41a4.21,4.21,0,0,0-.25,3.19,8.55,8.55,0,0,0,1.35,2.7c-.9,0-2.73-.13-5.16-.18-.28,1.37-.62,2.75-1,4.12,1.9,0,3.52.08,4.64.12.28,7,.82,31.81-5.18,40.78-.42.64-.84,1.23-1.23,1.79,1.54.08,3.14.19,4.75.34a23.25,23.25,0,0,0,2.41-5.13,1.11,1.11,0,0,0,.19,0c3.17-.95,7.57,4.1,10,7.11,1,.22,1.95.47,2.92.74l-.24-.29-.5-.63c-2.42-3.06-7.27-9.2-11.77-8.84.3-1,.58-2.15.82-3.27a6.2,6.2,0,0,0,3.45.8l1,0c3.46,2.27,7,7.08,8.83,9.57l.66.89c.69.92,1.65,2.11,2.69,3.35,1.55.55,3.09,1.15,4.6,1.83-1.95-2.28-4.16-4.91-5.41-6.58l-.66-.89a52.81,52.81,0,0,0-7.57-8.66,35,35,0,0,0,5.68-1.81c3.82-1.58,7.55-3.86,9.39-6.17a83.68,83.68,0,0,1,5,22.6,4.88,4.88,0,0,0-3,3.22c.57.31,1.13.62,1.68.94A4,4,0,0,1,248,161.9c.05,1,.07,2.09.09,3.13.84.54,1.67,1.11,2.47,1.7v-.06A86.67,86.67,0,0,0,215.35,97C215.39,98,215.38,99,215.34,100.08Zm17.16,41.17a28.07,28.07,0,0,1-7.56,2.06,8.32,8.32,0,0,0-3.51-1.09,6.86,6.86,0,0,1,1.73-2,27.19,27.19,0,0,1,7.18-4.19,25.28,25.28,0,0,1,8.91-2.15c1.69,0,2.25.42,2.31.56C241.87,135.2,239.08,138.52,232.5,141.25Zm7.88-9.73a9.77,9.77,0,0,0-1.13-.06,27.66,27.66,0,0,0-9.84,2.33,29.68,29.68,0,0,0-7.83,4.59c-.15.13-.26.24-.38.36a170.53,170.53,0,0,0,.82-27.81,8.64,8.64,0,0,0,2.72,1.35,5.17,5.17,0,0,0,1.42.2,3.62,3.62,0,0,0,1.76-.44A84.23,84.23,0,0,1,240.38,131.52Zm-13.77-21a2.81,2.81,0,0,1-1.39-.07,8.33,8.33,0,0,1-5.26-5.26,3.06,3.06,0,0,1-.07-1.39A85.22,85.22,0,0,1,226.61,110.52Z" transform="translate(-8.7 -11.63)"/><path class="cls-3" d="M215.22,116l-.05-.81-.81,0-1.9-.08c-.2.6-.41,1.2-.62,1.81l1.6.06c.2,4.45.9,25.91-4.22,33.54a50.38,50.38,0,0,1-3.24,4.37l2.31,0c.76-1,1.56-2.06,2.44-3.38C216.77,142.52,215.29,117.12,215.22,116Z" transform="translate(-8.7 -11.63)"/><path class="cls-3" d="M235.61,215.24a40.32,40.32,0,0,0,.27-5,84.91,84.91,0,0,1-8,11.1,3.74,3.74,0,0,0-1.77-.45h0A7.41,7.41,0,0,0,222,222.4a169.85,169.85,0,0,0-.82-27.76,29.09,29.09,0,0,0,8.21,4.92,36.14,36.14,0,0,0,5.23,1.71c-.26-.93-.62-1.85-.95-2.78-1.09-.33-2.21-.7-3.35-1.17-5.43-2.25-8.27-4.9-8.93-6.18A8.32,8.32,0,0,0,225,190a25.75,25.75,0,0,1,5.32,1.3,29,29,0,0,0-2.37-3.25l-.13,0,.06-.06c-.49-.58-1.06-1.12-1.6-1.67a15.07,15.07,0,0,1-1.63,1.25c-.35,0-.69,0-1,0a6.2,6.2,0,0,0-3.45.8c-.25-1.13-.52-2.23-.82-3.28l.41,0a7.39,7.39,0,0,0,3.79-1.29c-.49-.4-1-.78-1.54-1.17a4.21,4.21,0,0,1-3.05.54.5.5,0,0,0-.21,0,25.33,25.33,0,0,0-1.55-3.59,49.56,49.56,0,0,0-7-3.14c.82,1.07,1.7,2.3,2.66,3.73,6,9,5.47,33.79,5.19,40.77-7,.29-31.8.82-40.76-5.18-5.39-3.61-8-6.24-9.33-7.83,1.15-.11,2.29-.28,3.42-.49a38.41,38.41,0,0,0,7.59,6.27c6,4,19.09,4.7,27.61,4.7,4.36,0,7.51-.19,7.87-.21l.81,0,.05-.8c.07-1.08,1.55-26.48-4.49-35.49a40.45,40.45,0,0,0-5.65-7q-3-.78-6.09-1.32a35.72,35.72,0,0,1-7,15.5,15.67,15.67,0,0,0-3.16-1.57A32.08,32.08,0,0,0,195.59,173c-.77-.1-1.56-.18-2.35-.26a29.85,29.85,0,0,1-7.68,14.74,2.83,2.83,0,0,0-.61.44,2.37,2.37,0,0,0-.45.63,30,30,0,0,1-19.22,8.26,3.78,3.78,0,0,0-3.09,0A30,30,0,0,1,143,188.51a2.65,2.65,0,0,0-.45-.62,2.81,2.81,0,0,0-.55-.41,30,30,0,0,1-8.3-19.38,4.05,4.05,0,0,0,.29-1.43,4,4,0,0,0-.29-1.42,30,30,0,0,1,8.3-19.39,3.27,3.27,0,0,0,.55-.4,3.13,3.13,0,0,0,.44-.61,29.92,29.92,0,0,1,19.23-8.27,4,4,0,0,0,1.54.33h0a4,4,0,0,0,1.53-.33,29.83,29.83,0,0,1,14.5,4.61c.42-.7.82-1.4,1.22-2.1a32.2,32.2,0,0,0-13.31-4.73,6.4,6.4,0,0,0,.75-3c0-.15,0-.29,0-.42a35.33,35.33,0,0,1,14.23,5.09c.84-1.65,1.6-3.3,2.3-4.95a40.9,40.9,0,0,0-11.55-4.74,41,41,0,0,1,6.51-5.19,24.85,24.85,0,0,1,8.82-3c.1-.64.18-1.27.25-1.9-4,.71-7.65,1.78-10.08,3.41a38.41,38.41,0,0,0-7.59,6.27c-1.13-.21-2.26-.38-3.41-.49,1.31-1.63,4-4.24,9.31-7.83,2.79-1.87,7.13-3.1,12-3.91a36.68,36.68,0,0,0-.1-5.35,4.77,4.77,0,0,1-.88.63,8.17,8.17,0,0,0-1.09-3.54,23,23,0,0,1,.7-3.57,33.61,33.61,0,0,0-1.33-3.67,33.44,33.44,0,0,0-1.36,4.42,53.3,53.3,0,0,0-8.66-7.57l-.89-.66c-2.67-2-7.79-6.44-10-8.37,2.55-.44,4.46-1.74,4.92-3.42.82.07,1.62.19,2.43.28a37.55,37.55,0,0,0-7.74-3c-.48,0-1,0-1.44,0a86.24,86.24,0,0,0-50.13,16c.08.94.16,1.89.25,2.82A84.46,84.46,0,0,1,128.57,90c-.32,2.93.71,7.17,2.28,11a28.76,28.76,0,0,0,4.94,8.21,154.56,154.56,0,0,0-20.86-1c.19,1.4.4,2.76.6,4.14,10.2-.1,27.56.52,34.74,5.32,5.39,3.61,8,6.23,9.34,7.82-1.16.12-2.3.29-3.43.5a38.11,38.11,0,0,0-7.59-6.27c-7.35-4.93-25.61-4.85-32.66-4.61.09.6.17,1.22.27,1.82,7-.21,24.61-.24,31.38,4.3a41,41,0,0,1,6.51,5.19,41.13,41.13,0,0,0-15.9,7.7c-1.4-1.66-2.7-3-3.29-3.58-3.88-3.89-9.58-8.43-12.86-8.43a2.86,2.86,0,0,0-2.1.81c-3.49,3.49,5.74,13.08,7.62,15,1.09,1.08,2.31,2.21,3.58,3.28a41.29,41.29,0,0,0-6.6,12.2c1.15,3.79,2.38,7.48,3.66,11.09l.26,0a3.32,3.32,0,0,1,2.76,1.29c0,.65,0,1.32,0,2a3,3,0,0,1-1.49,1c.28.76.58,1.51.88,2.28a6.86,6.86,0,0,0,.83-.34,32.21,32.21,0,0,0,1.18,5.39c1,2.43,2,4.8,3.07,7.14a32.22,32.22,0,0,0,3,4.29c-.27.09-.56.23-.84.35.51,1.06,1,2.1,1.53,3.14.08,0,.21-.12.29-.15a4.07,4.07,0,0,1-.17.38q3.38,6.82,7,13.16a40.49,40.49,0,0,0,7.6,2.65,34.41,34.41,0,0,1-4,3.39c.32.52.65,1,1,1.55a32.39,32.39,0,0,0,5.08-4.5c1.13.21,2.26.38,3.41.49a36.07,36.07,0,0,1-7.07,6.26c1.9,2.94,3.85,5.78,5.82,8.55a10,10,0,0,0,12-.9,8.61,8.61,0,0,0,2.55-4c.62.44,1.28.91,2,1.37a22.89,22.89,0,0,0,5.3,2.51.62.62,0,0,0,0,.19c1,3.56-5.36,8.6-8.08,10.76l-.63.5c-.83.66-1.95,1.64-3.1,2.68.39.46.77.94,1.16,1.4,1.15-1,2.27-2,3.08-2.67l.61-.48c3.07-2.42,9.22-7.28,8.87-11.77,1,.3,2.14.55,3.26.8a7.34,7.34,0,0,0-.78,4.47c-2.28,3.46-7.08,7-9.57,8.84l-.88.66c-.78.59-1.76,1.37-2.81,2.23l1.54,1.76c1-.82,1.93-1.57,2.67-2.12l.87-.64a53.22,53.22,0,0,0,8.67-7.56,35.21,35.21,0,0,0,1.82,5.67c1.56,3.75,3.84,7.52,6.18,9.38a83,83,0,0,1-12.55,3.53c.68.7,1.36,1.39,2,2.08A87.05,87.05,0,0,0,235.61,215.24Zm-70.85-81.1-1,0-1,0a3.34,3.34,0,0,1-1.27-2.74,4.65,4.65,0,0,1,.05-.66c.74,0,1.47-.07,2.22-.07s1.48,0,2.22.07a4.65,4.65,0,0,1,0,.66A3.3,3.3,0,0,1,164.76,134.14Zm-1-51.82c1.6,0,3.19.06,4.77.15-.57,1-2.36,1.85-4.78,1.85a6.55,6.55,0,0,1-4.47-1.44,2.76,2.76,0,0,1-.31-.41C160.54,82.38,162.13,82.32,163.74,82.32ZM139.28,109c-1.43-.69-4.07-3.8-6.19-8.93-2.73-6.58-2.35-10.9-1.5-11.23,1.21,0,4.3,3.23,6.72,9.07a27.81,27.81,0,0,1,2.05,7.59A8.26,8.26,0,0,0,139.28,109Zm-4.91-21.39a83.68,83.68,0,0,1,22.6-5,3.71,3.71,0,0,0,.95,1.6,7.35,7.35,0,0,0,4,1.84c-2.2,1.93-7.34,6.39-10,8.39l-.83.62a52.7,52.7,0,0,0-8.73,7.61,34.47,34.47,0,0,0-1.8-5.7C139,93.23,136.7,89.46,134.37,87.61Zm7.71,22.67a7.13,7.13,0,0,0,.76-4.43c2.28-3.47,7.12-7,9.62-8.89l.86-.64c2.89-2.17,8.41-7,10.43-8.76,2.05,1.8,7.52,6.57,10.4,8.73l.91.67c2.49,1.84,7.29,5.4,9.57,8.85a9.06,9.06,0,0,0,.42,3.85,3.59,3.59,0,0,0,.33.62c-1.12.24-2.2.52-3.25.82.38-4.5-5.78-9.37-8.85-11.78l-.63-.51c-2.57-2.07-8.23-7.42-8.29-7.47a.89.89,0,0,0-1.09-.11.73.73,0,0,0-.24.22c-.75.7-5.81,5.47-8.2,7.39l-.64.5c-3.05,2.41-9.19,7.26-8.84,11.76C144.3,110.8,143.21,110.52,142.08,110.28Zm12.5,5.3c-.64-.44-1.3-.91-2-1.38a22.88,22.88,0,0,0-5.3-2.5.55.55,0,0,0,0-.18c-1-3.56,5.33-8.6,8.06-10.75l.64-.52c2.15-1.72,6.24-5.53,7.79-7,1.58,1.48,5.63,5.25,7.76,7l.65.51c2.72,2.15,9.1,7.19,8.06,10.75a.75.75,0,0,0,0,.21,22.49,22.49,0,0,0-5.3,2.51c-.71.46-1.37.93-2,1.37a8.53,8.53,0,0,0-2.19-3.7,9.87,9.87,0,0,0-7-2.82A9.4,9.4,0,0,0,154.58,115.58Zm4.26,3.32a2.31,2.31,0,0,0,.25-1c0-2.18,2.08-4,4.65-4a5,5,0,0,1,3.54,1.4,3.6,3.6,0,0,1,1.1,2.56,2.44,2.44,0,0,0,.24,1,25.9,25.9,0,0,0-4.89,5.24A25.32,25.32,0,0,0,158.84,118.9Zm.24,12.08c0,.13,0,.27,0,.42a6.16,6.16,0,0,0,.75,3A32.09,32.09,0,0,0,143,141.6a15.77,15.77,0,0,0-1.56-3.18A35.53,35.53,0,0,1,159.08,131Zm-18.65,11.78h0V144h0Zm-2.15-1.55.46-.43a12.92,12.92,0,0,1,.9,1.8,12.94,12.94,0,0,1-1.8-.9ZM130,135.37c-4.36-4.38-6.59-8-7.21-9.6,1.75.63,5.35,3,9.59,7.21,1.2,1.2,2.22,2.33,3.11,3.38-.36.34-.73.67-1.08,1s-.69.71-1,1.08C132.36,137.57,131.23,136.55,130,135.37ZM128.46,162l-.42,0a35.56,35.56,0,0,1,7.46-17.66,15.42,15.42,0,0,0,3.16,1.57,32.37,32.37,0,0,0-7.22,16.82A6.11,6.11,0,0,0,128.46,162ZM204,176.31a39.75,39.75,0,0,1,5.22,6.53c5.12,7.63,4.42,29.09,4.22,33.54-4.46.21-25.91.89-33.55-4.22a40.91,40.91,0,0,1-6.51-5.2,40.9,40.9,0,0,0,15.9-7.69c1,1.19,2.1,2.39,3.29,3.58,3.88,3.88,9.58,8.42,12.86,8.42a2.86,2.86,0,0,0,2.1-.8c2-2-.24-5.62-1-6.82a46.69,46.69,0,0,0-6.65-8.15c-1.08-1.08-2.31-2.21-3.58-3.28A41.13,41.13,0,0,0,204,176.31Zm1.43,33.21v-1.75h0ZM193,196c.35-.36.68-.72,1-1.09,1.06.89,2.19,1.92,3.37,3.1,4.37,4.38,6.61,8,7.22,9.6-1.75-.63-5.35-3-9.58-7.21-1.2-1.2-2.22-2.33-3.11-3.38Zm-3.39-4.3-.44.47-.46.43a11.88,11.88,0,0,1-.9-1.8A11.91,11.91,0,0,1,189.64,191.67Zm-5.16.1a14.32,14.32,0,0,0,1.44,2.94l.14.21a35.64,35.64,0,0,1-17.66,7.45c0-.14,0-.28,0-.42a6.18,6.18,0,0,0-.72-3A32.19,32.19,0,0,0,184.48,191.77Zm-21.75,7.44,1,0,1,0a2.19,2.19,0,0,1,.51.46,3.56,3.56,0,0,1,.75,2.27,4.91,4.91,0,0,1,0,.67c-.74,0-1.48.07-2.22.07s-1.48,0-2.22-.07a4.91,4.91,0,0,1-.06-.66A3.37,3.37,0,0,1,162.73,199.21Zm-3.65,3.16a35.64,35.64,0,0,1-17.66-7.45,1.53,1.53,0,0,1,.14-.21,15.43,15.43,0,0,0,1.44-2.94A32.28,32.28,0,0,0,159.79,199a6.12,6.12,0,0,0-.75,2.95C159,202.09,159.07,202.23,159.08,202.37Zm9.31,13.12a3.66,3.66,0,0,1-1.27,2.71,5,5,0,0,1-3.38,1.25c-2.57,0-4.65-1.78-4.65-4a2.31,2.31,0,0,0-.25-1,25.71,25.71,0,0,0,4.9-5.25,25.3,25.3,0,0,0,4.89,5.25A2.44,2.44,0,0,0,168.39,215.49Zm27.58,29h-.09c-1.21,0-4.3-3.23-6.72-9.07a27.34,27.34,0,0,1-2.06-7.58,8.18,8.18,0,0,0,1.09-3.51c1.44.7,4.07,3.81,6.19,8.93a27.24,27.24,0,0,1,2.11,8C196.65,243.49,196.21,244.4,196,244.5Zm22.4-13.64a84.45,84.45,0,0,1-19.49,12.47,12,12,0,0,0,0-2.19,29.9,29.9,0,0,0-2.29-8.79,29.19,29.19,0,0,0-4.94-8.22,148.1,148.1,0,0,0,18.54,1.06c4.46,0,7.9-.15,9.25-.22C218,227.07,217.53,229.34,218.37,230.86Zm1.52-1.31c-.25-1.09.4-3,2.08-4.63a6.53,6.53,0,0,1,4.18-2.15,1.24,1.24,0,0,1,.48,0A85.85,85.85,0,0,1,219.89,229.55Z" transform="translate(-8.7 -11.63)"/><path class="cls-3" d="M208.29,125.5q-1.6,3.41-3.38,6.59c.62-.82,1.18-1.63,1.65-2.39A11.33,11.33,0,0,0,208.29,125.5Z" transform="translate(-8.7 -11.63)"/><path class="cls-3" d="M192.31,151.21l-1.61,2c.39.79.75,1.59,1.07,2.4l2.44-.25A33,33,0,0,0,192.31,151.21Z" transform="translate(-8.7 -11.63)"/><path class="cls-3" d="M190,155.88l0-.08a7.4,7.4,0,0,0-.54-1l-1.11,1.32S188.94,156,190,155.88Z" transform="translate(-8.7 -11.63)"/><path class="cls-3" d="M187.21,176.4a5.08,5.08,0,0,1-2.85,2.6,11.93,11.93,0,0,1-4.82.73,23.87,23.87,0,0,0-1.39-5,5.4,5.4,0,0,0,1.09-1.64,5.14,5.14,0,0,0,.16-.78c-1,0-2,.06-3,.13a3.81,3.81,0,0,1-2.87,1.41,11.24,11.24,0,0,0-.3-1.1c-1.76.17-3.52.38-5.29.64a7.17,7.17,0,0,1-1.16.62,7.79,7.79,0,0,1-3,.61,8,8,0,0,1-1.56-.23c-3,.6-5.94,1.34-8.88,2.18.17,0,.31.07.47.09a10.61,10.61,0,0,0,.16,1.15c0,.22.11.44.18.65a21.19,21.19,0,0,1-3.06.9,22.06,22.06,0,0,1,.68-2.35c-1.16.35-2.31.73-3.46,1.12-.12.54-.27,1.08-.35,1.61a13.73,13.73,0,0,1-2.59-.15c-.26,0-.49-.12-.74-.18l-.36.13.21-.17c-2.09-.51-3.59-1.52-4.19-3-.95-2.28.36-5.24,3.07-7.78a24,24,0,0,0,4.52,2.54,5,5,0,0,0,.39,1.94,5.11,5.11,0,0,0,1.09,1.64c-.13.33-.21.65-.33,1,1-.81,1.95-1.64,2.92-2.47A2.63,2.63,0,0,1,150.8,172a3.28,3.28,0,0,1,.48-2.93,4.63,4.63,0,0,1,.43-.56,12.67,12.67,0,0,0,1.67.93,11.2,11.2,0,0,0,.44,1.31c.08.18.18.35.27.53.73-.65,1.46-1.31,2.18-2a7.88,7.88,0,0,1,4.42-10,7.63,7.63,0,0,1,5.6-.15c.65-.72,1.27-1.44,1.9-2.16a10.13,10.13,0,0,0-1.67-.69,11.14,11.14,0,0,0-.94-1.66,5.2,5.2,0,0,1,.59-.46,3.3,3.3,0,0,1,2.92-.48,2.5,2.5,0,0,1,1.08.94c.69-.84,1.37-1.69,2-2.54l-.4.13a5.18,5.18,0,0,0-1.65-1.1,5,5,0,0,0-1.94-.38,23.57,23.57,0,0,0-2.54-4.52,11.91,11.91,0,0,1,3.92-2.88,5.1,5.1,0,0,1,3.86-.19,5.26,5.26,0,0,1,2.79,3.45c.67-1,1.32-1.93,1.94-2.9a7.5,7.5,0,0,0-3.58-3.32,7.94,7.94,0,0,0-6.15.19,14.63,14.63,0,0,0-4.72,3.33,16.35,16.35,0,0,0-2.11-1.84c-3-2.18-6.11-2.77-8.77-1.68-3.44,1.43-5.27,5.36-5.21,10.18a17,17,0,0,0-2.79.19c-3.66.57-6.28,2.36-7.38,5a7.9,7.9,0,0,0,.19,6.15,14.3,14.3,0,0,0,3.33,4.71c-3.45,3.37-4.95,7.44-3.52,10.89,1.1,2.66,3.73,4.44,7.39,5a16.66,16.66,0,0,0,2.58.19h.2c-.06,4.82,1.76,8.75,5.21,10.18a7.12,7.12,0,0,0,2.74.54,10.34,10.34,0,0,0,6-2.22,15.62,15.62,0,0,0,2.11-1.83c2.5,2.57,5.39,4.05,8.13,4.05a7.24,7.24,0,0,0,2.75-.54c2.66-1.1,4.44-3.73,5-7.39a16,16,0,0,0,.18-2.79H180a14.46,14.46,0,0,0,5.48-1,7.91,7.91,0,0,0,4.48-4.22,7.54,7.54,0,0,0,.11-5.12c-1.06-.07-2.13-.12-3.2-.15A5.13,5.13,0,0,1,187.21,176.4Zm-23.46-27.67a22,22,0,0,1,1.52,2.8c-.2.1-.4.21-.59.33a9.24,9.24,0,0,0-1,.73,8.17,8.17,0,0,0-.94-.73c-.2-.12-.39-.23-.59-.33A21,21,0,0,1,163.75,148.73ZM161,156.32a10.89,10.89,0,0,0-1.33.44,10.44,10.44,0,0,0-1.25.63,10.43,10.43,0,0,0-1.83-.51,6,6,0,0,1,.09-.74,2.83,2.83,0,0,1,4.66-1.93,6.65,6.65,0,0,1,.59.46A10.18,10.18,0,0,0,161,156.32Zm-7-13.13c1.65-.68,3.73-.21,5.85,1.33a14.16,14.16,0,0,1,1.94,1.73,23.92,23.92,0,0,0-2.55,4.53,5.17,5.17,0,0,0-1.94.39,5.23,5.23,0,0,0-1.64,1.09,24,24,0,0,0-5-1.39C150.55,147.16,151.72,144.14,154,143.19Zm.1,11.69a6.36,6.36,0,0,0-.18.66,9.14,9.14,0,0,0-.16,1.17,9.06,9.06,0,0,0-1.18.16c-.22,0-.44.11-.65.18a20.38,20.38,0,0,1-.89-3.07A21.19,21.19,0,0,1,154.11,154.88Zm-3.31,6.44a3.29,3.29,0,0,1,2.4-1.74c.24-.05.49-.07.73-.1a12.29,12.29,0,0,0,.51,1.84,11.18,11.18,0,0,0-.62,1.25,10.89,10.89,0,0,0-.44,1.33,11.62,11.62,0,0,0-1.66.93A3.5,3.5,0,0,1,150.8,161.32Zm-1.88,6.3c-.12.2-.23.39-.33.58a19,19,0,0,1-2.78-1.53,20.34,20.34,0,0,1,2.77-1.52,8.08,8.08,0,0,0,1,1.55A10.15,10.15,0,0,0,148.92,167.62Zm-8.48-6.82a5.07,5.07,0,0,1-.19-3.85c.69-1.65,2.49-2.79,5.08-3.2a13.79,13.79,0,0,1,2.59-.14,24.32,24.32,0,0,0,1.4,5,5.21,5.21,0,0,0-1.09,1.65,5.08,5.08,0,0,0-.4,1.95,23.55,23.55,0,0,0-4.51,2.53A11.7,11.7,0,0,1,140.44,160.8Zm33.1,17a8.53,8.53,0,0,0,.16-1.16,8.24,8.24,0,0,0,1.83-.35,20.58,20.58,0,0,1,.9,3,20.89,20.89,0,0,1-3.07-.89C173.43,178.25,173.49,178,173.54,177.82Zm-13.68,11c-2.12,1.55-4.19,2-5.85,1.33-2.3-.95-3.46-4-3.34-7.69a23.92,23.92,0,0,0,5-1.38,5.11,5.11,0,0,0,1.64,1.09,5.26,5.26,0,0,0,1.94.4,23.75,23.75,0,0,0,2.54,4.53A14.69,14.69,0,0,1,159.86,188.83Zm-1.48-9.22a3.25,3.25,0,0,1-1.73-2.4,5.62,5.62,0,0,1-.1-.7,12.17,12.17,0,0,0,1.86-.54A10.74,10.74,0,0,0,161,177a11.67,11.67,0,0,0,.94,1.66A3.53,3.53,0,0,1,158.38,179.61Zm5.36,5a21.3,21.3,0,0,1-1.54-2.79,8.14,8.14,0,0,0,1.55-1.05,9.14,9.14,0,0,0,.93.71c.19.12.39.22.59.32A20.39,20.39,0,0,1,163.74,184.62Zm2.78-7.59a10.22,10.22,0,0,0,1.32-.44,11,11,0,0,0,1.24-.62,10.93,10.93,0,0,0,1.84.54,5.59,5.59,0,0,1-.09.7,2.83,2.83,0,0,1-4.67,1.93,5.79,5.79,0,0,1-.57-.44A10.73,10.73,0,0,0,166.52,177Zm10.14,8c-.41,2.6-1.54,4.4-3.2,5.09-2.28.94-5.24-.36-7.78-3.07a24.69,24.69,0,0,0,2.54-4.52,5.16,5.16,0,0,0,3.59-1.48,24.17,24.17,0,0,0,5,1.38A13.85,13.85,0,0,1,176.66,185.07Z" transform="translate(-8.7 -11.63)"/></svg>